<svg width="166" height="45" viewBox="0 0 166 45" fill="none" xmlns="http://www.w3.org/2000/svg">
<path d="M13.365 38.005C16.225 38.005 18.9933 36.8683 21.67 34.595C22.66 33.7517 23.4667 32.9817 24.09 32.285C24.7133 31.5517 25.19 31.185 25.52 31.185C26.0333 31.185 26.29 31.6983 26.29 32.725C26.29 33.7517 26.015 34.9067 25.465 36.19C24.915 37.4367 23.9983 38.665 22.715 39.875C19.5617 42.845 15.235 44.33 9.73499 44.33C5.37166 44.33 2.40166 42.7533 0.824994 39.6C0.274994 38.5 -6.02566e-06 36.9233 -6.02566e-06 34.87C-6.02566e-06 32.8167 0.403327 30.69 1.20999 28.49C2.01666 26.2533 3.07999 24.3283 4.39999 22.715C5.75666 21.1017 7.31499 19.855 9.07499 18.975C10.835 18.0583 12.705 17.6 14.685 17.6C16.7017 17.6 18.2417 18.095 19.305 19.085C20.405 20.075 20.955 21.3583 20.955 22.935C20.955 24.5117 20.5517 25.8133 19.745 26.84C18.975 27.83 17.9667 28.6733 16.72 29.37C15.4733 30.03 14.08 30.635 12.54 31.185C11.0367 31.6983 9.55166 32.285 8.08499 32.945V34.32C8.12166 35.64 8.67166 36.575 9.73499 37.125C10.7983 37.675 12.0083 37.9683 13.365 38.005ZM12.43 22.495C10.5233 22.495 9.20333 24.7133 8.46999 29.15C9.23999 28.6367 9.95499 28.1783 10.615 27.775C11.3117 27.3717 11.9167 26.9867 12.43 26.62C13.53 25.8133 14.0983 24.8967 14.135 23.87C14.135 22.9533 13.5667 22.495 12.43 22.495ZM39.5983 31.955C40.5883 35.8783 42.2566 37.84 44.6033 37.84C45.7399 37.84 46.7666 37.4917 47.6833 36.795C48.5999 36.0983 49.4249 35.3467 50.1583 34.54C50.8916 33.6967 51.5333 32.9267 52.0833 32.23C52.6333 31.5333 53.1466 31.185 53.6233 31.185C54.0999 31.185 54.3383 31.8083 54.3383 33.055C54.3383 35.6583 53.1283 38.17 50.7083 40.59C48.2883 43.01 45.5749 44.2017 42.5683 44.165C39.5983 44.165 36.9399 41.5433 34.5933 36.3C33.9333 34.8333 33.3099 33.3483 32.7233 31.845L32.3383 39.38C32.3383 40.0767 32.3016 40.7733 32.2283 41.47C32.1549 42.13 31.8433 42.68 31.2933 43.12C29.8633 44.2567 28.4149 44.825 26.9483 44.825C25.2249 44.825 24.3633 43.0467 24.3633 39.49C24.3633 34.3567 24.9683 28.985 26.1783 23.375C27.3883 17.765 28.5616 13.5483 29.6983 10.725C30.8716 7.865 31.7699 5.95833 32.3933 5.005C33.0533 4.05167 33.5666 3.465 33.9333 3.245C34.2999 3.025 34.7033 2.915 35.1433 2.915C35.6199 2.915 36.1149 3.15333 36.6283 3.63C37.1416 4.07 37.6916 4.76666 38.2783 5.72C38.8649 6.63667 39.1583 7.55333 39.1583 8.47C39.1949 9.35 39.0483 10.23 38.7183 11.11C38.4249 11.9533 38.0216 12.7967 37.5083 13.64C36.9949 14.4467 36.4266 15.29 35.8033 16.17C35.1799 17.0133 34.5566 17.93 33.9333 18.92L33.3833 23.54C34.6666 20.8633 36.5549 19.0667 39.0483 18.15C39.9283 17.82 40.9549 17.655 42.1283 17.655C44.4749 17.655 46.2716 18.2233 47.5183 19.36C48.7649 20.46 49.3883 22.0917 49.3883 24.255C49.3883 26.4183 48.3066 28.2517 46.1433 29.755C43.9799 31.2583 41.7983 31.9917 39.5983 31.955ZM41.6883 25.52C41.6883 24.2 40.9366 23.54 39.4333 23.54C37.9299 23.54 36.2983 24.9883 34.5383 27.885C34.0249 28.7283 33.5849 29.59 33.2183 30.47C37.0316 30.25 39.6349 29.2233 41.0283 27.39C41.4683 26.8033 41.6883 26.18 41.6883 25.52ZM64.1154 17.38C66.5721 17.3433 68.4054 17.8017 69.6154 18.755C70.8254 19.6717 71.4304 21.01 71.4304 22.77C71.4304 24.4933 70.8987 25.9783 69.8354 27.225C68.8087 28.435 67.5437 29.2967 66.0404 29.81C67.1037 30.91 68.0571 32.0283 68.9004 33.165C69.7804 34.3017 70.2204 35.4933 70.2204 36.74C70.2204 39.1967 69.2487 41.1033 67.3054 42.46C65.3621 43.78 62.6487 44.44 59.1654 44.44C55.7187 44.44 53.1337 43.7617 51.4104 42.405C49.6871 41.0117 48.8254 39.4533 48.8254 37.73C48.8254 35.97 49.2471 34.375 50.0904 32.945C50.9704 31.515 51.9054 30.8 52.8954 30.8C53.4821 30.8 53.9037 31.02 54.1604 31.46C54.4171 31.8633 54.8937 33.0733 55.5904 35.09C55.8471 35.8233 56.2687 36.52 56.8554 37.18C58.2121 38.6833 60.3571 39.435 63.2904 39.435C62.8504 38.0417 62.1354 36.85 61.1454 35.86C60.1921 34.8333 59.2387 33.8433 58.2854 32.89C57.3321 31.9367 56.4887 30.9283 55.7554 29.865C55.0221 28.765 54.6554 27.4817 54.6554 26.015C54.6554 23.375 55.6454 21.23 57.6254 19.58C59.4954 18.1133 61.6587 17.38 64.1154 17.38ZM63.8954 27.555C65.3621 25.9783 66.0954 24.7133 66.0954 23.76C66.0954 23.32 65.9304 22.935 65.6004 22.605C65.3071 22.2383 64.8671 22.055 64.2804 22.055C63.6937 22.055 63.1254 22.1283 62.5754 22.275C62.0621 22.4217 61.6404 22.5317 61.3104 22.605C61.3104 23.9983 62.1721 25.6483 63.8954 27.555ZM82.3406 19.8C82.3406 22.2567 81.9006 25.0433 81.0206 28.16C81.0939 29.3333 81.1306 30.47 81.1306 31.57C81.2039 33.9167 81.4972 35.53 82.0106 36.41C82.3772 36.8867 82.8539 37.125 83.4406 37.125C84.5772 37.125 85.9889 36.3183 87.6756 34.705C86.3922 31.6617 85.7506 28.9117 85.7506 26.455C85.7506 21.4317 88.1156 18.92 92.8456 18.92C94.4589 18.92 95.7972 19.3967 96.8606 20.35C97.9606 21.2667 98.5106 22.4217 98.5106 23.815C98.5106 26.7483 96.8789 30.2683 93.6156 34.375C94.9722 35.9883 96.0722 36.9233 96.9156 37.18C98.1256 37.18 99.9406 34.9433 102.361 30.47C101.921 28.82 101.701 27.28 101.701 25.85C101.701 23.2467 102.104 21.34 102.911 20.13C103.901 18.59 105.532 17.82 107.806 17.82C110.116 17.82 111.417 18.755 111.711 20.625C111.784 21.175 111.821 21.7617 111.821 22.385C111.821 24.7317 110.519 27.9767 107.916 32.12C108.832 33.44 109.694 34.2283 110.501 34.485C112.187 34.485 113.617 33.9167 114.791 32.78C115.231 32.3767 115.597 32.01 115.891 31.68C116.221 31.3133 116.551 31.13 116.881 31.13C117.394 31.13 117.651 31.735 117.651 32.945C117.651 35.1817 116.991 36.8317 115.671 37.895C114.351 38.9583 112.627 39.49 110.501 39.49C108.374 39.49 106.522 38.4633 104.946 36.41C103.039 38.9033 101.462 40.645 100.216 41.635C97.9422 43.505 96.1639 44.44 94.8806 44.44C94.2572 44.44 93.4506 43.9267 92.4606 42.9C91.5072 41.8367 90.5539 40.4617 89.6006 38.775C87.8406 40.425 86.0989 41.7817 84.3756 42.845C82.6522 43.9083 81.2039 44.44 80.0306 44.44C77.9039 44.44 76.1072 39.82 74.6406 30.58C74.1272 27.4267 73.8706 25.2633 73.8706 24.09C73.9439 21.67 74.2739 19.9833 74.8606 19.03C75.6672 17.8567 77.2439 17.27 79.5906 17.27C80.4706 17.27 81.1489 17.545 81.6256 18.095C82.1022 18.6083 82.3406 19.1767 82.3406 19.8ZM91.7456 29.7C92.9556 27.83 93.5606 26.345 93.5606 25.245C93.5606 24.1083 93.1756 23.54 92.4056 23.54C91.8922 23.54 91.5622 23.8333 91.4156 24.42C91.3056 24.97 91.2506 25.7033 91.2506 26.62C91.2506 27.5367 91.4156 28.5633 91.7456 29.7ZM148.939 31.02C149.599 31.02 149.929 31.8633 149.929 33.55C149.929 34.4667 149.544 35.585 148.774 36.905C148.004 38.1883 146.996 39.38 145.749 40.48C144.539 41.5433 143.182 42.4233 141.679 43.12C140.176 43.8167 138.709 44.165 137.279 44.165C135.336 44.165 134.034 42.46 133.374 39.05C132.421 40.6267 131.174 41.9283 129.634 42.955C128.094 43.945 126.022 44.44 123.419 44.44C120.852 44.44 118.781 43.6333 117.204 42.02C115.627 40.4067 114.857 38.445 114.894 36.135C114.894 29.9017 116.966 24.9883 121.109 21.395C122.869 19.8917 124.501 18.9017 126.004 18.425C127.544 17.9483 129.157 17.71 130.844 17.71C132.531 17.71 133.906 18.0033 134.969 18.59C135.482 17.5267 136.069 16.995 136.729 16.995C138.012 16.995 139.222 17.5633 140.359 18.7C141.532 19.8 142.119 20.845 142.119 21.835C141.606 23.045 140.854 24.4933 139.864 26.18C139.571 27.8667 139.424 30.2317 139.424 33.275C139.424 36.3183 139.809 37.84 140.579 37.84C141.532 37.84 143.842 35.9333 147.509 32.12C148.169 31.3867 148.646 31.02 148.939 31.02ZM122.979 34.32C122.979 37.1433 124.024 38.555 126.114 38.555C128.351 38.5183 130.202 37.3267 131.669 34.98C132.182 34.1733 132.604 33.1833 132.934 32.01C132.934 27.9033 133.301 24.3833 134.034 21.45C131.064 22.0367 128.479 23.4667 126.279 25.74C124.079 28.0133 122.979 30.8733 122.979 34.32ZM153.781 44.165C150.114 44.165 148.281 40.7367 148.281 33.88C148.281 30.14 148.739 26.7483 149.656 23.705C151.086 19.0117 152.699 16.665 154.496 16.665C155.559 16.665 156.403 17.38 157.026 18.81C157.539 19.91 157.778 20.9917 157.741 22.055C157.741 23.5217 157.301 26.1067 156.421 29.81C155.578 33.0367 155.156 35.035 155.156 35.805C155.156 36.575 155.339 37.1067 155.706 37.4C156.109 37.6933 156.568 37.84 157.081 37.84C157.631 37.84 158.309 37.4917 159.116 36.795C159.923 36.0983 160.729 35.3467 161.536 34.54C162.343 33.6967 163.076 32.9267 163.736 32.23C164.433 31.5333 164.909 31.185 165.166 31.185C165.679 31.185 165.936 31.8083 165.936 33.055C165.936 35.6217 164.634 38.1333 162.031 40.59C159.464 43.01 156.714 44.2017 153.781 44.165ZM156.036 12.21C155.046 10.7433 154.551 9.16666 154.551 7.48C154.551 5.79333 154.808 4.4 155.321 3.3C155.871 2.16333 156.384 1.33833 156.861 0.824999C157.338 0.274999 157.888 -6.55651e-07 158.511 -6.55651e-07C159.538 -6.55651e-07 160.473 0.769999 161.316 2.31C162.159 3.81333 162.581 5.07833 162.581 6.105C162.581 8.01167 161.903 9.515 160.546 10.615C159.226 11.6783 157.723 12.21 156.036 12.21Z" fill="white"/>
</svg>
